<?xml version="1.0" encoding="UTF-8" standalone="no"?>
<svg
   xmlns:dc="http://purl.org/dc/elements/1.1/"
   xmlns:cc="http://creativecommons.org/ns#"
   xmlns:rdf="http://www.w3.org/1999/02/22-rdf-syntax-ns#"
   xmlns:svg="http://www.w3.org/2000/svg"
   xmlns="http://www.w3.org/2000/svg"
   xmlns:sodipodi="http://sodipodi.sourceforge.net/DTD/sodipodi-0.dtd"
   xmlns:inkscape="http://www.inkscape.org/namespaces/inkscape"
   width="100mm"
   height="100mm"
   viewBox="0 0 100 100"
   version="1.1"
   id="svg910"
   inkscape:version="1.0.1 (3bc2e813f5, 2020-09-07)"
   sodipodi:docname="apexion_logo.svg">
  <defs
     id="defs904" />
  <sodipodi:namedview
     id="base"
     pagecolor="#ffffff"
     bordercolor="#666666"
     borderopacity="1.0"
     inkscape:pageopacity="0.0"
     inkscape:pageshadow="2"
     inkscape:zoom="0.98994949"
     inkscape:cx="217.57359"
     inkscape:cy="178.44738"
     inkscape:document-units="mm"
     inkscape:current-layer="layer1"
     inkscape:document-rotation="0"
     showgrid="false"
     inkscape:window-width="1421"
     inkscape:window-height="667"
     inkscape:window-x="499"
     inkscape:window-y="0"
     inkscape:window-maximized="0" />
  <metadata
     id="metadata907">
    <rdf:RDF>
      <cc:Work
         rdf:about="">
        <dc:format>image/svg+xml</dc:format>
        <dc:type
           rdf:resource="http://purl.org/dc/dcmitype/StillImage" />
        <dc:title></dc:title>
      </cc:Work>
    </rdf:RDF>
  </metadata>
  <g
     inkscape:label="Layer 1"
     inkscape:groupmode="layer"
     id="layer1">
    <path
       d="m 70.171006,53.853936 c 2.319579,0 4.211311,1.891732 4.211311,4.211346 0,2.001878 -1.409588,3.684352 -3.28689,4.107885 -4.92085,13.087395 -17.575032,22.442549 -32.346443,22.442549 -14.75445,0 -27.397233,-9.334066 -32.3301077,-22.39802 -1.9895512,-0.333824 -3.5139192,-2.070516 -3.5139192,-4.152414 0,-2.319614 1.8917319,-4.211346 4.2110522,-4.211346 2.3195878,0 4.2113117,1.891732 4.2113117,4.211346 0,1.379444 -0.668158,2.607235 -1.6992494,3.375974 4.5642454,11.62925 15.9062674,19.90094 29.1209124,19.90094 13.169981,0 24.481887,-8.215779 29.075874,-19.783423 -1.123733,-0.757376 -1.865288,-2.041719 -1.865288,-3.493491 0,-2.319614 1.891732,-4.211346 4.211436,-4.211346 z"
       style="fill:#30b492;fill-rule:evenodd;stroke-width:3.34818"
       id="path23" />
    <path
       d="m 43.683123,7.4447563 c 0,-2.3196305 -1.891732,-4.2113472 -4.210927,-4.2113472 -2.001949,0 -3.684753,1.4095785 -4.107921,3.2869071 C 22.27655,11.441141 12.921673,24.095267 12.921673,38.86679 c 0,14.754456 9.333745,27.397185 22.397672,32.330077 0.334083,1.98948 2.070543,3.51391 4.152851,3.51391 2.319195,0 4.210927,-1.891714 4.210927,-4.211346 0,-2.319285 -1.891732,-4.211008 -4.210927,-4.211008 -1.379854,0 -2.6076,0.668674 -3.376366,1.699204 C 24.466928,63.423383 16.194899,52.081414 16.194899,38.86679 c 0,-13.170077 8.215717,-24.481921 19.783369,-29.0759674 0.758009,1.1235984 2.041817,1.8652684 3.493928,1.8652684 2.319195,0 4.210927,-1.8917166 4.210927,-4.2113347 z"
       style="fill:#00584b;fill-rule:evenodd;stroke-width:3.34818"
       id="path25" />
    <path
       d="m 29.865867,42.009394 c -2.319579,0 -4.211311,-1.891714 -4.211311,-4.211344 0,-2.001875 1.409597,-3.684678 3.286899,-4.107884 4.92085,-13.087721 17.575282,-22.442551 32.346434,-22.442551 14.754833,0 27.397242,9.333734 32.330116,22.39769 1.989417,0.33408 3.514293,2.070513 3.514293,4.152745 0,2.31963 -1.891732,4.211344 -4.211435,4.211344 -2.319579,0 -4.211311,-1.891714 -4.211311,-4.211344 0,-1.37979 0.668157,-2.60756 1.699257,-3.376312 -4.564244,-11.628904 -15.906275,-19.900933 -29.12092,-19.900933 -13.169723,0 -24.481887,8.21578 -29.075989,19.783423 1.123723,0.757628 1.865278,2.041712 1.865278,3.493822 0,2.31963 -1.891732,4.211344 -4.211311,4.211344 z"
       style="fill:#00584b;fill-rule:evenodd;stroke-width:3.34818"
       id="path27" />
    <path
       d="m 56.35375,88.418244 c 0,2.319632 1.891607,4.211346 4.21131,4.211346 2.001575,0 3.684379,-1.409578 4.107921,-3.286577 13.087342,-4.921153 22.442477,-17.575291 22.442477,-32.3468 0,-14.75445 -9.334003,-27.397189 -22.398055,-32.330074 -0.334083,-1.989157 -2.070418,-3.513917 -4.152343,-3.513917 -2.319703,0 -4.21131,1.891717 -4.21131,4.211347 0,2.319618 1.891607,4.211347 4.21131,4.211347 1.379471,0 2.607217,-0.668919 3.375983,-1.699544 11.629161,4.564246 19.900931,15.906223 19.900931,29.120841 0,13.17008 -8.215841,24.481923 -19.783494,29.076293 -0.756743,-1.123973 -2.041692,-1.865608 -3.49342,-1.865608 -2.319703,0 -4.21131,1.892061 -4.21131,4.211346 z"
       style="fill:#00584b;fill-rule:evenodd;stroke-width:3.34818"
       id="path29" />
  </g>
</svg>
